<svg width="1864" height="1139" viewBox="0 0 1864 1139" fill="#FFCF2D" xmlns="http://www.w3.org/2000/svg">
<g opacity="0.2">
<path d="M1763.93 1064.56L1763.93 1054L1792 1054L1792 1082.07L1781.52 1082.07L1781.52 1064.56L1763.93 1064.56Z"/>
<path d="M1744.98 1083.51L1744.98 1073.03L1773.05 1073.03L1773.05 1101.02L1762.49 1101.02L1762.49 1083.51L1744.98 1083.51Z"/>
<path d="M1726.03 1102.54L1726.03 1091.98L1754.02 1091.98L1754.02 1120.05L1743.54 1120.05L1743.54 1102.54L1726.03 1102.54Z"/>
<path d="M1707 1121.49L1707 1110.93L1735.07 1110.93L1735.07 1139L1724.51 1139L1724.51 1121.49L1707 1121.49Z"/>
</g>
<g opacity="0.8" clip-path="url(#clip0_0_1)">
<path d="M1813.25 18.9636C1812.24 19.5459 1811.05 19.2254 1810.46 18.2158C1809.88 17.2062 1810.2 16.0123 1811.21 15.4301C1812.22 14.8478 1813.41 15.1683 1813.99 16.1779C1814.58 17.1875 1814.17 18.4299 1813.25 18.9636Z"/>
<path d="M1821.94 34.0232C1820.93 34.6054 1819.74 34.2849 1819.16 33.2754C1818.57 32.2658 1818.89 31.0719 1819.9 30.4896C1820.91 29.9074 1822.1 30.2279 1822.69 31.2375C1823.22 32.1629 1822.87 33.4894 1821.94 34.0232Z"/>
<path d="M1830.59 48.9988C1829.58 49.581 1828.39 49.2605 1827.8 48.2509C1827.22 47.2414 1827.54 46.0475 1828.55 45.4652C1829.56 44.883 1830.75 45.2035 1831.33 46.213C1831.92 47.2226 1831.51 48.465 1830.59 48.9988Z"/>
<path d="M1839.28 64.0574C1838.27 64.6396 1837.08 64.3191 1836.5 63.3095C1835.91 62.3 1836.23 61.1061 1837.24 60.5238C1838.25 59.9416 1839.44 60.2621 1840.03 61.2716C1840.61 62.2812 1840.21 63.5236 1839.28 64.0574Z"/>
<path d="M1847.98 79.1169C1846.97 79.6992 1845.78 79.3787 1845.19 78.3691C1844.61 77.3595 1844.93 76.1657 1845.94 75.5834C1846.95 75.0011 1848.14 75.3216 1848.72 76.3312C1849.26 77.2567 1848.9 78.5832 1847.98 79.1169Z"/>
<path d="M1856.67 94.1765C1855.66 94.7587 1854.47 94.4383 1853.89 93.4287C1853.3 92.4191 1853.62 91.2252 1854.63 90.643C1855.64 90.0607 1856.83 90.3812 1857.42 91.3908C1858 92.4004 1857.6 93.6428 1856.67 94.1765Z"/>
<path d="M1865.32 109.152C1864.31 109.734 1863.12 109.414 1862.53 108.404C1861.95 107.395 1862.27 106.201 1863.28 105.619C1864.29 105.036 1865.48 105.357 1866.06 106.366C1866.65 107.376 1866.24 108.618 1865.32 109.152Z"/>
<path d="M1800.73 26.1931C1799.72 26.7754 1798.52 26.4549 1797.94 25.4453C1797.36 24.4357 1797.68 23.2418 1798.69 22.6596C1799.69 22.0773 1800.89 22.3978 1801.47 23.4074C1802.05 24.417 1801.73 25.6108 1800.73 26.1931Z"/>
<path d="M1809.42 41.2527C1808.41 41.8349 1807.22 41.5144 1806.64 40.5049C1806.05 39.4953 1806.37 38.3014 1807.38 37.7191C1808.39 37.1369 1809.58 37.4574 1810.17 38.467C1810.7 39.3924 1810.43 40.6704 1809.42 41.2527Z"/>
<path d="M1818.07 56.2283C1817.06 56.8105 1815.86 56.49 1815.28 55.4804C1814.7 54.4709 1815.02 53.277 1816.03 52.6947C1817.03 52.1125 1818.23 52.433 1818.81 53.4425C1819.39 54.4521 1819.07 55.646 1818.07 56.2283Z"/>
<path d="M1826.76 71.2878C1825.75 71.8701 1824.56 71.5496 1823.98 70.54C1823.39 69.5304 1823.71 68.3366 1824.72 67.7543C1825.73 67.172 1826.92 67.4925 1827.51 68.5021C1828.09 69.5117 1827.77 70.7056 1826.76 71.2878Z"/>
<path d="M1835.46 86.3474C1834.45 86.9296 1833.25 86.6092 1832.67 85.5996C1832.09 84.59 1832.41 83.3961 1833.42 82.8139C1834.42 82.2316 1835.62 82.5521 1836.2 83.5617C1836.73 84.4871 1836.46 85.7651 1835.46 86.3474Z"/>
<path d="M1844.15 101.407C1843.14 101.989 1841.95 101.669 1841.37 100.659C1840.78 99.6496 1841.1 98.4557 1842.11 97.8734C1843.12 97.2912 1844.31 97.6117 1844.9 98.6213C1845.48 99.6308 1845.16 100.825 1844.15 101.407Z"/>
<path d="M1852.8 116.382C1851.79 116.964 1850.59 116.643 1850.01 115.634C1849.43 114.624 1849.75 113.43 1850.76 112.848C1851.76 112.266 1852.96 112.586 1853.54 113.596C1854.12 114.605 1853.8 115.799 1852.8 116.382Z"/>
<path d="M1861.49 131.441C1860.48 132.023 1859.29 131.703 1858.71 130.693C1858.12 129.684 1858.44 128.49 1859.45 127.908C1860.46 127.325 1861.65 127.646 1862.24 128.655C1862.82 129.665 1862.5 130.859 1861.49 131.441Z"/>
<path d="M1838.21 4.55247C1837.2 5.13473 1836.01 4.81423 1835.42 3.80465C1834.84 2.79508 1835.16 1.6012 1836.17 1.01895C1837.18 0.436691 1838.37 0.757184 1838.95 1.76676C1839.54 2.77634 1839.22 3.97022 1838.21 4.55247Z"/>
<path d="M1846.9 19.612C1845.89 20.1943 1844.7 19.8738 1844.12 18.8642C1843.53 17.8546 1843.85 16.6608 1844.86 16.0785C1845.87 15.4963 1847.06 15.8168 1847.65 16.8263C1848.18 17.7518 1847.91 19.0298 1846.9 19.612Z"/>
<path d="M1855.55 34.5876C1854.54 35.1699 1853.35 34.8494 1852.76 33.8398C1852.18 32.8302 1852.5 31.6364 1853.51 31.0541C1854.52 30.4718 1855.76 30.8765 1856.29 31.8019C1856.88 32.8115 1856.56 34.0054 1855.55 34.5876Z"/>
<path d="M1864.24 49.6472C1863.23 50.2295 1862.04 49.909 1861.46 48.8994C1860.88 47.8898 1861.19 46.6959 1862.2 46.1137C1863.21 45.5314 1864.45 45.936 1864.99 46.8615C1865.52 47.7869 1865.25 49.0649 1864.24 49.6472Z"/>
<path d="M1825.69 11.782C1824.68 12.3642 1823.48 12.0437 1822.9 11.0341C1822.32 10.0246 1822.72 8.78217 1823.65 8.24844C1824.65 7.66618 1825.85 7.98668 1826.43 8.99625C1827.01 10.0058 1826.69 11.1997 1825.69 11.782Z"/>
<path d="M1834.38 26.8415C1833.37 27.4238 1832.18 27.1033 1831.6 26.0937C1831.01 25.0841 1831.33 23.8903 1832.34 23.308C1833.35 22.7258 1834.54 23.0462 1835.13 24.0558C1835.66 24.9813 1835.39 26.2593 1834.38 26.8415Z"/>
<path d="M1843.03 41.8171C1842.02 42.3994 1840.82 42.0789 1840.24 41.0693C1839.66 40.0597 1839.98 38.8658 1840.99 38.2836C1841.99 37.7013 1843.19 38.0218 1843.77 39.0314C1844.35 40.041 1844.03 41.2349 1843.03 41.8171Z"/>
<path d="M1851.72 56.8767C1850.71 57.4589 1849.52 57.1385 1848.94 56.1289C1848.35 55.1193 1848.67 53.9254 1849.68 53.3432C1850.69 52.7609 1851.88 53.0814 1852.47 54.091C1853.05 55.1006 1852.73 56.2944 1851.72 56.8767Z"/>
<path d="M1860.42 71.9363C1859.41 72.5185 1858.21 72.198 1857.63 71.1884C1857.05 70.1789 1857.37 68.985 1858.38 68.4027C1859.38 67.8205 1860.58 68.141 1861.16 69.1505C1861.69 70.076 1861.42 71.354 1860.42 71.9363Z"/>
<path d="M1788.29 33.3738C1787.28 33.956 1786.09 33.6355 1785.5 32.6259C1784.92 31.6164 1785.24 30.4225 1786.25 29.8402C1787.26 29.258 1788.45 29.5785 1789.03 30.5881C1789.61 31.5976 1789.21 32.84 1788.29 33.3738Z"/>
<path d="M1796.98 48.4333C1795.97 49.0156 1794.78 48.6951 1794.2 47.6855C1793.61 46.6759 1793.93 45.4821 1794.94 44.8998C1795.95 44.3176 1797.14 44.638 1797.73 45.6476C1798.26 46.5731 1797.91 47.8996 1796.98 48.4333Z"/>
<path d="M1805.63 63.4089C1804.62 63.9912 1803.43 63.6707 1802.84 62.6611C1802.26 61.6515 1802.58 60.4576 1803.59 59.8754C1804.6 59.2931 1805.79 59.6136 1806.37 60.6232C1806.96 61.6328 1806.55 62.8752 1805.63 63.4089Z"/>
<path d="M1814.32 78.4685C1813.31 79.0507 1812.12 78.7303 1811.54 77.7207C1810.95 76.7111 1811.27 75.5172 1812.28 74.935C1813.29 74.3527 1814.48 74.6732 1815.07 75.6828C1815.65 76.6924 1815.25 77.9348 1814.32 78.4685Z"/>
<path d="M1823.02 93.5281C1822.01 94.1103 1820.82 93.7898 1820.23 92.7802C1819.65 91.7707 1819.97 90.5768 1820.98 89.9945C1821.99 89.4123 1823.18 89.7328 1823.76 90.7423C1824.3 91.6678 1823.94 92.9943 1823.02 93.5281Z"/>
<path d="M1831.71 108.588C1830.7 109.17 1829.51 108.849 1828.93 107.84C1828.34 106.83 1828.66 105.636 1829.67 105.054C1830.68 104.472 1831.87 104.792 1832.46 105.802C1833.04 106.811 1832.64 108.054 1831.71 108.588Z"/>
<path d="M1840.36 123.563C1839.35 124.145 1838.16 123.825 1837.57 122.815C1836.99 121.806 1837.31 120.612 1838.32 120.03C1839.33 119.447 1840.52 119.768 1841.1 120.778C1841.69 121.787 1841.28 123.029 1840.36 123.563Z"/>
<path d="M1849.05 138.623C1848.04 139.205 1846.85 138.885 1846.27 137.875C1845.68 136.865 1846 135.672 1847.01 135.089C1848.02 134.507 1849.21 134.827 1849.8 135.837C1850.38 136.847 1849.98 138.089 1849.05 138.623Z"/>
<path d="M1857.75 153.682C1856.74 154.265 1855.55 153.944 1854.96 152.935C1854.38 151.925 1854.7 150.731 1855.71 150.149C1856.72 149.567 1857.91 149.887 1858.49 150.897C1859.03 151.822 1858.67 153.149 1857.75 153.682Z"/>
<path d="M1775.77 40.6033C1774.76 41.1855 1773.56 40.865 1772.98 39.8554C1772.4 38.8459 1772.72 37.652 1773.73 37.0697C1774.73 36.4875 1775.93 36.808 1776.51 37.8175C1777.09 38.8271 1776.77 40.021 1775.77 40.6033Z"/>
<path d="M1784.46 55.6628C1783.45 56.2451 1782.26 55.9246 1781.68 54.915C1781.09 53.9054 1781.41 52.7116 1782.42 52.1293C1783.43 51.547 1784.62 51.8675 1785.2 52.8771C1785.74 53.8026 1785.47 55.0806 1784.46 55.6628Z"/>
<path d="M1793.11 70.6384C1792.1 71.2207 1790.9 70.9002 1790.32 69.8906C1789.74 68.881 1790.06 67.6871 1791.07 67.1049C1792.07 66.5226 1793.27 66.8431 1793.85 67.8527C1794.43 68.8623 1794.11 70.0562 1793.11 70.6384Z"/>
<path d="M1799.02 84.9502C1799.58 85.9259 1800.83 86.2607 1801.8 85.698C1802.78 85.1352 1803.11 83.888 1802.55 82.9123C1801.98 81.9365 1800.74 81.6017 1799.76 82.1645C1798.79 82.7272 1798.45 83.9744 1799.02 84.9502Z"/>
<path d="M1810.5 100.758C1809.49 101.34 1808.29 101.019 1807.71 100.01C1807.13 99.0002 1807.45 97.8063 1808.46 97.224C1809.46 96.6418 1810.66 96.9623 1811.24 97.9718C1811.77 98.8973 1811.5 100.175 1810.5 100.758Z"/>
<path d="M1819.19 115.817C1818.18 116.399 1816.99 116.079 1816.41 115.069C1815.82 114.06 1816.14 112.866 1817.15 112.284C1818.16 111.701 1819.35 112.022 1819.93 113.031C1820.52 114.041 1820.2 115.235 1819.19 115.817Z"/>
<path d="M1827.84 130.793C1826.83 131.375 1825.63 131.054 1825.05 130.045C1824.47 129.035 1824.79 127.841 1825.8 127.259C1826.8 126.677 1828 126.997 1828.58 128.007C1829.16 129.017 1828.84 130.21 1827.84 130.793Z"/>
<path d="M1833.75 145.104C1834.31 146.08 1835.56 146.415 1836.53 145.852C1837.51 145.29 1837.84 144.042 1837.28 143.067C1836.71 142.091 1835.47 141.756 1834.49 142.319C1833.52 142.881 1833.18 144.129 1833.75 145.104Z"/>
<path d="M1845.23 160.912C1844.22 161.494 1843.02 161.174 1842.44 160.164C1841.86 159.154 1842.18 157.961 1843.19 157.378C1844.19 156.796 1845.39 157.117 1845.97 158.126C1846.5 159.052 1846.23 160.33 1845.23 160.912Z"/>
<path d="M1763.24 47.8337C1762.23 48.416 1761.04 48.0955 1760.46 47.0859C1759.88 46.0763 1760.19 44.8825 1761.2 44.3002C1762.21 43.7179 1763.4 44.0384 1763.99 45.048C1764.57 46.0576 1764.25 47.2515 1763.24 47.8337Z"/>
<path d="M1771.94 62.8933C1770.93 63.4755 1769.74 63.1551 1769.15 62.1455C1768.57 61.1359 1768.89 59.942 1769.9 59.3598C1770.91 58.7775 1772.1 59.098 1772.68 60.1076C1773.22 61.033 1772.95 62.311 1771.94 62.8933Z"/>
<path d="M1780.58 77.8689C1779.58 78.4511 1778.38 78.1306 1777.8 77.1211C1777.22 76.1115 1777.53 74.9176 1778.54 74.3354C1779.55 73.7531 1780.75 74.0736 1781.33 75.0832C1781.91 76.0927 1781.59 77.2866 1780.58 77.8689Z"/>
<path d="M1789.28 92.9285C1788.27 93.5107 1787.08 93.1902 1786.49 92.1806C1785.91 91.1711 1786.23 89.9772 1787.24 89.3949C1788.25 88.8127 1789.44 89.1332 1790.02 90.1427C1790.61 91.1523 1790.29 92.3462 1789.28 92.9285Z"/>
<path d="M1797.97 107.988C1796.96 108.57 1795.77 108.25 1795.19 107.24C1794.61 106.231 1794.92 105.037 1795.93 104.454C1796.94 103.872 1798.13 104.193 1798.72 105.202C1799.25 106.128 1798.98 107.406 1797.97 107.988Z"/>
<path d="M1806.67 123.048C1805.66 123.63 1804.47 123.309 1803.88 122.3C1803.3 121.29 1803.62 120.096 1804.63 119.514C1805.64 118.932 1806.83 119.252 1807.41 120.262C1808 121.271 1807.68 122.465 1806.67 123.048Z"/>
<path d="M1815.31 138.022C1814.31 138.604 1813.11 138.284 1812.53 137.274C1811.95 136.265 1812.26 135.071 1813.27 134.489C1814.28 133.906 1815.48 134.227 1816.06 135.236C1816.64 136.246 1816.32 137.44 1815.31 138.022Z"/>
<path d="M1824.01 153.082C1823 153.664 1821.81 153.344 1821.22 152.334C1820.64 151.324 1820.96 150.131 1821.97 149.548C1822.98 148.966 1824.17 149.286 1824.75 150.296C1825.34 151.306 1825.02 152.5 1824.01 153.082Z"/>
<path d="M1832.7 168.141C1831.69 168.724 1830.5 168.403 1829.92 167.394C1829.34 166.384 1829.65 165.19 1830.66 164.608C1831.67 164.026 1832.86 164.346 1833.45 165.356C1833.98 166.281 1833.71 167.559 1832.7 168.141Z"/>
<path d="M1750.8 55.0144C1749.8 55.5966 1748.6 55.2762 1748.02 54.2666C1747.44 53.257 1747.76 52.0631 1748.76 51.4809C1749.77 50.8986 1750.97 51.2191 1751.55 52.2287C1752.13 53.2383 1751.73 54.4807 1750.8 55.0144Z"/>
<path d="M1759.5 70.074C1758.49 70.6562 1757.3 70.3357 1756.71 69.3261C1756.13 68.3166 1756.45 67.1227 1757.46 66.5404C1758.47 65.9582 1759.66 66.2787 1760.24 67.2882C1760.78 68.2137 1760.42 69.5402 1759.5 70.074Z"/>
<path d="M1768.15 85.0495C1767.14 85.6318 1765.94 85.3113 1765.36 84.3017C1764.78 83.2921 1765.1 82.0983 1766.11 81.516C1767.11 80.9338 1768.31 81.2543 1768.89 82.2638C1769.47 83.2734 1769.07 84.5158 1768.15 85.0495Z"/>
<path d="M1776.84 100.109C1775.83 100.691 1774.64 100.371 1774.06 99.3613C1773.47 98.3517 1773.79 97.1578 1774.8 96.5756C1775.81 95.9933 1777 96.3138 1777.58 97.3234C1778.17 98.333 1777.76 99.5754 1776.84 100.109Z"/>
<path d="M1785.53 115.169C1784.53 115.751 1783.33 115.43 1782.75 114.421C1782.17 113.411 1782.49 112.217 1783.49 111.635C1784.5 111.053 1785.7 111.373 1786.28 112.383C1786.81 113.308 1786.46 114.635 1785.53 115.169Z"/>
<path d="M1794.23 130.228C1793.22 130.811 1792.03 130.49 1791.44 129.48C1790.86 128.471 1791.18 127.277 1792.19 126.695C1793.2 126.112 1794.39 126.433 1794.97 127.443C1795.56 128.452 1795.15 129.695 1794.23 130.228Z"/>
<path d="M1802.88 145.204C1801.87 145.786 1800.67 145.466 1800.09 144.456C1799.51 143.446 1799.83 142.253 1800.84 141.67C1801.84 141.088 1803.04 141.409 1803.62 142.418C1804.2 143.428 1803.8 144.67 1802.88 145.204Z"/>
<path d="M1811.57 160.263C1810.56 160.846 1809.37 160.525 1808.79 159.516C1808.2 158.506 1808.52 157.312 1809.53 156.73C1810.54 156.148 1811.73 156.468 1812.31 157.478C1812.9 158.487 1812.49 159.73 1811.57 160.263Z"/>
<path d="M1820.26 175.323C1819.26 175.905 1818.06 175.585 1817.48 174.575C1816.9 173.566 1817.22 172.372 1818.22 171.789C1819.23 171.207 1820.43 171.528 1821.01 172.537C1821.54 173.463 1821.19 174.789 1820.26 175.323Z"/>
</g>
<g opacity="0.2">
<path d="M62.7082 677.152C72.8183 677.152 81.054 668.984 81.054 658.956C81.054 648.929 72.8183 640.76 62.7082 640.76L62.7082 677.152Z"/>
<path d="M34.0876 677.152C44.1977 677.152 52.4334 668.984 52.4334 658.956C52.4334 648.929 44.1977 640.76 34.0876 640.76L34.0876 677.152Z"/>
<path d="M5.46702 677.152C15.5771 677.152 23.8128 668.984 23.8128 658.956C23.8128 648.929 15.5771 640.76 5.46702 640.76L5.46702 677.152Z"/>
</g>
<defs>
<clipPath id="clip0_0_1">
<rect width="143" height="105" fill="white" transform="translate(1837.93) rotate(60)"/>
</clipPath>
</defs>
</svg>
